<?xml version="1.0" encoding="UTF-8"?>
<svg id="Calque_2" data-name="Calque 2" xmlns="http://www.w3.org/2000/svg" viewBox="0 0 30.94 30.94">
  <defs>
    <style>
      .cls-1 {
        fill: #0866ff;
      }

      .cls-2 {
        fill: #fff;
      }
    </style>
  </defs>
  <g id="Layer_1" data-name="Layer 1">
    <g>
      <path class="cls-1" d="M30.94,15.47c0,4.27-1.73,8.14-4.53,10.94-2.38,2.38-5.54,3.99-9.06,4.42-.61.07-1.24.11-1.88.11-1.28,0-2.52-.15-3.71-.45C5.01,28.83,0,22.74,0,15.47,0,11.2,1.73,7.33,4.53,4.53,7.33,1.73,11.2,0,15.47,0s8.14,1.73,10.94,4.53c2.8,2.8,4.53,6.67,4.53,10.94Z"/>
      <path class="cls-2" d="M17.35,13.8v1.67h5.04l-.83,4.72h-4.2v10.65c-.61.07-1.24.11-1.88.11-1.28,0-2.52-.15-3.71-.45v-10.31h-3.22v-4.72h3.22v-2.55c0-.83.08-1.68.3-2.49.42-1.55,1.17-2.75,2.34-3.5,1.5-1,3.44-1.18,4.94-1.18,1.18,0,2.89.25,3.32.38l-.02,4.27c-.82-.05-1.55-.07-2.24-.03-.25,0-.52.05-.77.08-2.38.38-2.25,2.65-2.28,3.35Z"/>
    </g>
  </g>
</svg>