<?xml version="1.0" encoding="UTF-8"?>
<svg id="Calque_2" data-name="Calque 2" xmlns="http://www.w3.org/2000/svg" viewBox="0 0 30.94 30.94">
  <defs>
    <style>
      .cls-1 {
        fill: #fff;
      }

      .cls-2 {
        fill: #fffc23;
      }
    </style>
  </defs>
  <g id="Layer_1" data-name="Layer 1">
    <g>
      <rect class="cls-2" x="0" y="0" width="30.94" height="30.94" rx="15.47" ry="15.47"/>
      <g id="snapchat">
        <path class="cls-1" d="M15.47,24.75c-1.4,0-2.32-.56-3-.97-.3-.18-.56-.34-.79-.41h-.02s-.02-.01-.02-.01c-.57-.2-1.11-.23-2.11-.28h-.04s0,0,0,0c-.57-.05-.93-.4-.97-.95h0s0-.02,0-.02c0-.11-.02-.16-.03-.18-.18-.1-.46-.19-.82-.27h-.02s-.02,0-.02,0c-.62-.18-1.07-.41-1.36-.7l-.04-.04-.03-.04c-.12-.18-.16-.39-.11-.59.06-.23.24-.42.52-.56h0c1.28-.61,2.32-1.52,2.91-2.58h0c.21-.37.35-.72.41-1.04h0s0-.07,0-.08c0,0,0,0-.01-.01-.18-.15-.4-.3-.72-.5-.58-.36-.99-.64-1.22-.94v-.02s-.03-.02-.03-.02c-.23-.34-.3-.67-.21-.99.12-.45.43-.75.88-.84.09-.02.18-.03.27-.03s.18,0,.29.02c.27.05.58.14.96.29-.03-.65-.06-1.57,0-2.18.08-1.32.66-2.52,1.63-3.37.96-.84,2.26-1.3,3.66-1.3s2.7.46,3.66,1.3c.97.85,1.55,2.04,1.63,3.37.07.61.04,1.53,0,2.18.38-.15.69-.24.96-.29.1-.02.19-.02.29-.02s.19,0,.27.03c.45.09.76.39.88.84.09.32.02.65-.21.99v.02s-.03.02-.03.02c-.24.3-.64.58-1.22.94-.32.2-.53.35-.72.5,0,0,0,0-.01.01,0,0,0,.03,0,.07h0c.06.33.2.68.41,1.05h0c.6,1.06,1.63,1.98,2.91,2.58h0c.28.14.46.33.52.57.05.2.01.41-.11.59l-.03.04-.04.04c-.29.29-.73.51-1.36.7h-.02s-.02,0-.02,0c-.36.08-.64.17-.82.27,0,.02-.03.07-.03.18h0s0,.02,0,.02c-.04.55-.4.9-.97.95h0s-.04,0-.04,0c-.99.05-1.54.07-2.11.28h-.02s-.02.01-.02.01c-.23.07-.49.23-.79.41-.67.41-1.59.97-3,.97Z"/>
        <path d="M15.47,6.71c2.63,0,4.61,1.72,4.75,4.17.07.63.04,1.74-.03,2.63,0,.11.08.2.19.2.02,0,.04,0,.06,0l.26-.08c.4-.17.78-.31,1.11-.36.07-.01.13-.02.2-.02.06,0,.11,0,.17.02.23.05.4.18.47.46.05.17,0,.36-.14.55-.19.24-.59.51-1.09.82-.29.18-.54.35-.77.54-.19.16-.24.36-.19.6.07.38.23.78.47,1.2.71,1.26,1.89,2.21,3.15,2.8.23.11.3.24.21.37-.24.24-.64.42-1.13.56-.42.09-.76.21-1.01.35-.18.12-.25.33-.27.6-.02.32-.22.43-.48.45-1.03.05-1.64.08-2.29.31-.9.26-1.76,1.36-3.64,1.36s-2.74-1.09-3.64-1.36c-.65-.23-1.26-.26-2.29-.31-.27-.02-.46-.14-.48-.45-.01-.27-.09-.48-.27-.6-.24-.14-.59-.25-1.01-.35-.49-.15-.89-.33-1.13-.56-.09-.14-.02-.26.21-.37,1.26-.59,2.45-1.54,3.15-2.8.24-.42.4-.82.47-1.2.05-.24,0-.44-.19-.6-.23-.18-.48-.35-.77-.54-.5-.31-.9-.58-1.09-.82-.13-.19-.19-.37-.14-.55.07-.28.24-.41.47-.46.05-.01.11-.02.17-.02.07,0,.13,0,.2.02.33.05.71.19,1.11.36l.26.08s.04,0,.06,0c.11,0,.2-.09.19-.2-.06-.89-.1-2-.03-2.63.14-2.46,2.13-4.17,4.75-4.17M15.47,5.64c-.77,0-1.51.12-2.19.37-.68.24-1.3.6-1.82,1.06-1.08.94-1.72,2.26-1.81,3.72-.05.42-.05.97-.04,1.48-.11-.03-.21-.05-.31-.07-.13-.02-.25-.03-.37-.03-.13,0-.26.01-.38.04-.65.13-1.12.58-1.29,1.22-.09.33-.11.84.28,1.43l.02.04.03.03c.28.36.73.67,1.36,1.06.16.1.3.19.42.28-.06.2-.16.41-.29.63h0s0,0,0,0c-.54.96-1.49,1.8-2.67,2.36h0s0,0,0,0c-.54.26-.73.64-.8.91-.09.35-.03.72.19,1.03l.06.08.07.07c.36.35.86.62,1.58.83h.03s.03.02.03.02c.2.04.35.09.46.12.07.47.31.77.51.93.25.21.56.33.93.36h.02s.02,0,.02,0h.03c.94.05,1.46.07,1.95.25h.03s.03.02.03.02c.16.05.41.2.67.35.73.44,1.72,1.04,3.27,1.04s2.55-.6,3.27-1.04c.26-.16.5-.31.67-.35h.03s.03-.02.03-.02c.49-.18,1.01-.2,1.95-.25h.03s.02,0,.02,0h.02c.37-.03.68-.15.93-.36.2-.17.44-.46.51-.93.11-.04.26-.08.46-.12h.03s.03-.02.03-.02c.72-.21,1.22-.48,1.58-.83l.07-.07.06-.08c.21-.31.28-.68.19-1.03-.07-.27-.27-.64-.8-.91h0s0,0,0,0c-1.18-.56-2.13-1.39-2.67-2.36h0s0,0,0,0c-.13-.22-.22-.43-.29-.63.12-.08.25-.17.42-.28.63-.39,1.07-.7,1.36-1.06l.03-.03.02-.04c.4-.59.38-1.1.28-1.43-.17-.65-.64-1.09-1.29-1.22-.12-.02-.25-.04-.38-.04-.12,0-.24.01-.37.03-.1.02-.2.04-.31.07.01-.51,0-1.06-.04-1.48-.09-1.46-.73-2.78-1.81-3.72-.53-.46-1.14-.82-1.82-1.06-.69-.25-1.42-.37-2.19-.37h0Z"/>
      </g>
    </g>
  </g>
</svg>