<?xml version="1.0" encoding="UTF-8"?>
<svg id="Calque_2" data-name="Calque 2" xmlns="http://www.w3.org/2000/svg" viewBox="0 0 30.94 30.94">
  <defs>
    <style>
      .cls-1 {
        fill: #fe2c55;
      }

      .cls-2 {
        fill: #fff;
      }

      .cls-3 {
        fill: #25f4ee;
      }
    </style>
  </defs>
  <g id="Layer_1" data-name="Layer 1">
    <g>
      <rect x="0" y="0" width="30.94" height="30.94" rx="15.47" ry="15.47"/>
      <g id="tiktok">
        <g>
          <path class="cls-3" d="M13.39,12.29v1.04c-3.41.12-6.15,2.93-6.15,6.37,0,1.48.51,2.84,1.36,3.93-1.49-1.17-2.45-2.98-2.45-5.02,0-3.51,2.86-6.37,6.37-6.37.3,0,.59.02.87.06Z"/>
          <path class="cls-3" d="M19.02,5.96h-2.5v13.74c0,1.61-1.3,2.91-2.9,2.91-1.08,0-2.03-.59-2.53-1.47.42.24.91.38,1.43.38,1.6,0,2.9-1.3,2.9-2.91V4.87h3.47c0,.38.04.74.13,1.09Z"/>
          <path class="cls-3" d="M23.7,9.68v.97c-.89-.21-1.68-.66-2.31-1.28-.18-.18-.35-.38-.5-.59.79.57,1.76.91,2.81.91Z"/>
        </g>
        <path class="cls-2" d="M23.7,10.65v2.5c-1.79,0-3.45-.57-4.81-1.55v7.01c0,2.47-1.41,4.61-3.47,5.67-.87.45-1.86.7-2.9.7-1.48,0-2.83-.5-3.92-1.35,0,0,0,0,0,0-.85-1.08-1.36-2.45-1.36-3.93,0-3.44,2.74-6.25,6.15-6.37v2.5c-.28-.09-.57-.13-.87-.13-1.61,0-2.91,1.3-2.91,2.91,0,1.08.59,2.03,1.47,2.53.5.88,1.44,1.47,2.53,1.47,1.6,0,2.9-1.3,2.9-2.91V5.96h2.5c.21.89.66,1.68,1.28,2.31.18.18.38.35.59.5.15.21.32.41.5.59.62.62,1.42,1.08,2.31,1.28Z"/>
        <g>
          <path class="cls-1" d="M14.49,13.39v3.54c-.28-.09-.57-.13-.87-.13-1.61,0-2.91,1.3-2.91,2.91,0,.52.14,1.01.38,1.43-.88-.5-1.47-1.44-1.47-2.53,0-1.61,1.3-2.91,2.91-2.91.3,0,.6.05.87.13v-2.5c.07,0,.15,0,.22,0,.3,0,.59.02.87.06Z"/>
          <path class="cls-1" d="M20.89,8.78c-.21-.15-.41-.32-.59-.5-.62-.62-1.08-1.42-1.28-2.31h.97c0,1.05.34,2.02.91,2.81Z"/>
          <path class="cls-1" d="M24.79,10.78v3.46c-1.79,0-3.45-.57-4.81-1.55v7.01c0,2.47-1.41,4.61-3.47,5.67-.87.45-1.86.7-2.9.7-2.03,0-3.84-.95-5.01-2.44,1.08.84,2.44,1.35,3.92,1.35,1.05,0,2.03-.25,2.9-.7,2.06-1.06,3.47-3.2,3.47-5.67v-7.01c1.36.97,3.02,1.55,4.81,1.55v-2.5c.35.08.72.13,1.09.13Z"/>
        </g>
      </g>
    </g>
  </g>
</svg>